<?xml version="1.0" encoding="UTF-8"?>
<svg id="Layer_1" data-name="Layer 1" xmlns="http://www.w3.org/2000/svg" viewBox="0 0 1000 1000">
  <defs>
    <style>
      .cls-1 {
        fill: #fff;
      }
    </style>
  </defs>
  <path class="cls-1" d="M501.26,411.7l75.03,66.36,40.06-34.7-84.23-75.9-31.48-27.36-38.04,33.29-77.52,70.1,40.05,34.67,67.74-60.08c2.87-2.54,5.2-4.99,8.38-6.37Z"/>
  <path class="cls-1" d="M787.03,447.19l-53.07-48.03-83.79-74.79-63.07-54.12-33.51-28-51.02-42.11c-1.11-.92-2.49-1.01-3.61-.08l-63.69,52.61c-39.18,32.36-77.44,65.27-115.22,99.29l-105.62,95.09c-1.04.93-1.49,1.44-1.62,2.36-.16,1.16.56,1.96,1.7,2.92l67.21,56.44-60.3,47.16.05,59.08,70.11,53.58,171.57,131.99.08-217.32-70.16-56.03-97.14-77.35,89.81-79.21,53.03-46.77c20.05-17.91,40.47-34.32,61.98-50.84l16.44,13c13.38,10.33,26.05,20.73,38.86,32.02l149.44,131.74-167.76,133.94c-.88.14-1.27.96-1.24,2.54,1.1,71.91-1.13,144.05,1.12,213.65l128.46-97.98,113.54-86.98-.06-59.19-59.83-47.1,66.62-56.39c.97-.82,1.57-1.59,1.66-2.27.13-1.02-.03-2.01-.95-2.83ZM328.27,544.32l11.03,8.83,72.99,58.94-.1,75.11-133.32-102.76,49.41-40.12ZM722.44,584.31l-98.53,76.15-32.94,25.16c-.36-.51-.85-1.18-.85-2.26l-.08-71.82,82.9-67.3,49.51,40.07Z"/>
</svg>